<?xml version="1.0" encoding="utf-8"?>
<!-- Generator: Adobe Illustrator 15.1.0, SVG Export Plug-In . SVG Version: 6.00 Build 0)  -->
<!DOCTYPE svg PUBLIC "-//W3C//DTD SVG 1.1//EN" "http://www.w3.org/Graphics/SVG/1.1/DTD/svg11.dtd">
<svg version="1.1" id="Layer_1" xmlns="http://www.w3.org/2000/svg" xmlns:xlink="http://www.w3.org/1999/xlink" x="0px" y="0px"
	 width="320px" height="400px" viewBox="0 0 320 400" style="enable-background:new 0 0 320 400;" xml:space="preserve">
<style type="text/css">
<![CDATA[
	.st0{opacity:0.49;}
	.st1{opacity:0.58;}
	.st2{fill:#ED1C24;}
	.st3{fill:none;stroke:#BE1E2D;stroke-width:0.25;stroke-miterlimit:1;}
	.st4{fill:url(#SVGID_1_);}
	.st5{fill:#FFFFFF;}
	.st6{fill:#0D003B;}
]]>
</style>
<g>
	<path class="st2" d="M4,400V0h125.562c5.569,9.493,17.104,16.018,30.438,16.018S184.869,9.493,190.438,0H316v400H4z"/>
	<g class="st1">
		
			<radialGradient id="SVGID_1_" cx="205.2764" cy="334.3926" r="247.6136" gradientTransform="matrix(1 0 0 0.4883 0 171.1047)" gradientUnits="userSpaceOnUse">
			<stop  offset="0.4444" style="stop-color:#FFFFFF;stop-opacity:0"/>
			<stop  offset="0.9215" style="stop-color:#FFFFFF;stop-opacity:0.4637"/>
			<stop  offset="1" style="stop-color:#FFFFFF;stop-opacity:0.54"/>
		</radialGradient>
		<path class="st4" d="M4,400V0h125.562c5.569,9.493,17.104,16.018,30.438,16.018S184.869,9.493,190.438,0H316v400H4z"/>
	</g>
	<g class="st0">
		<path class="st5" d="M5.203,398.8c0-34.657,0-69.313,0-103.971c0-64.106,0-128.212,0-192.319c0-24.411,0-48.821,0-73.232
			c0-7.024,0-14.049,0-21.073c0-1.808,0-3.617,0-5.425c0-0.974-0.137-1.33,0.167-1.33c24.198,0,48.396,0,72.594,0
			c13.732,0,27.465,0,41.198,0c3.07,0,6.141,0,9.211,0c1.494,0,3.743,4.314,4.838,5.467c4.335,4.562,10.182,7.437,16.152,9.163
			c12.066,3.489,25.663,0.601,35.362-7.256c2.184-1.769,3.997-3.935,5.631-6.205c0.865-1.202,0.315-1.169,1.025-1.169
			c0.995,0,1.991,0,2.987,0c11.418,0,22.837,0,34.255,0c27.643,0,55.285,0,82.927,0c3.829,0,3.248-0.563,3.248,3.26
			c0,5.803,0,11.605,0,17.408c0,22.752,0,45.504,0,68.256c0,63.929,0,127.857,0,191.786c0,38.665,0,77.329,0,115.994
			c0,0.835,0.144,0.396-0.605,0.396c-1.653,0-3.307,0-4.96,0c-7.63,0-15.26,0-22.889,0c-27.161,0-54.321,0-81.481,0
			c-58.817,0-117.633,0-176.45,0c-7.737,0-15.474,0-23.211,0c-0.004,0-0.004,0.5,0,0.5c40.851,0,81.702,0,122.553,0
			c56.863,0,113.726,0,170.589,0c5.485,0,10.972,0,16.457,0c0.003,0,0.003-0.237,0.003-0.25c0-34.657,0-69.313,0-103.971
			c0-64.106,0-128.212,0-192.319c0-33.77,0-67.54,0-101.31c0-0.013,0-0.25-0.003-0.25c-22.937,0-45.874,0-68.811,0
			c-14.256,0-28.511,0-42.767,0c-3.62,0-7.24,0-10.859,0c-1.357,0-1.109-0.211-2.009,1.169c-3.379,5.187-8.604,8.915-14.134,11.493
			c-11.459,5.341-25.459,4.158-36.306-1.991c-2.474-1.403-4.666-3.239-6.705-5.205c-0.633-0.61-3.867-5.467-4.336-5.467
			c-0.662,0-1.324,0-1.986,0c-10.619,0-21.238,0-31.857,0c-28.349,0-56.699,0-85.048,0c-1.594,0-3.188,0-4.782,0
			c-0.003,0-0.002,0.237-0.002,0.25c0,34.657,0,69.313,0,103.971c0,64.106,0,128.213,0,192.319c0,33.77,0,67.54,0,101.31
			C5.198,399.083,5.203,399.083,5.203,398.8z"/>
	</g>
	<path class="st3" d="M4,400V0h125.562c5.569,9.493,17.104,16.018,30.438,16.018S184.869,9.493,190.438,0H316v400H4z"/>
	<g class="st1">
		<path class="st6" d="M4.006,400c0-34.568,0-69.136,0-103.704c0-64.197,0-128.395,0-192.592c0-24.691,0-49.383,0-74.074
			c0-7.253,0-14.506,0-21.759c0-1.949,0-3.897,0-5.845c0-0.49,0-0.98,0-1.47c0-1.037-0.001,0.07,0.004,0.07
			c23.079,0,46.158,0,69.237,0c14.375,0,28.751,0,43.127,0c3.829,0,7.657,0,11.486,0c0.563,0,1.126,0,1.689,0
			c0.362,0,3.522,4.749,4.035,5.311c2.187,2.396,4.882,4.274,7.658,5.914c10.92,6.448,25.06,6.118,36.253,0.676
			c4.973-2.418,9.133-6.248,12.245-10.777c0.933-1.357,0.678-1.125,2.15-1.125c10.072,0,20.145,0,30.217,0
			c28.979,0,57.957,0,86.936,0c2.305,0,4.608,0,6.913,0c0.049,0,0.036-1.062,0.036-0.227c0,0.49,0,0.98,0,1.47
			c0,4.961,0,9.923,0,14.884c0,21.552,0,43.104,0,64.656c0,63.697,0,127.394,0,191.09c0,41.771,0,83.542,0,125.312
			c0,0.729,0,1.457,0,2.186c0-1.101-1.606-0.622-2.57-0.622c-6.298,0-12.596,0-18.895,0c-25.593,0-51.187,0-76.779,0
			c-60.562,0-121.124,0-181.685,0c-10.688,0-21.376,0-32.065,0c-0.009,0-0.009,1.25,0,1.25c40.747,0,81.493,0,122.239,0
			c57.305,0,114.609,0,171.914,0c5.949,0,11.897,0,17.847,0c0.008,0,0.006-0.593,0.006-0.625c0-34.568,0-69.136,0-103.704
			c0-64.197,0-128.395,0-192.592c0-34.568,0-69.136,0-103.704c0-0.033,0.002-0.625-0.006-0.625c-22.752,0-45.504,0-68.256,0
			c-14.49,0-28.981,0-43.473,0c-3.956,0-7.912,0-11.868,0c-0.641,0-1.282,0-1.923,0c-0.34,0-2.762,3.84-3.156,4.314
			c-2.062,2.475-4.66,4.451-7.347,6.19c-10.649,6.893-24.798,7.009-36.179,2.027c-5.098-2.231-9.446-5.904-12.788-10.312
			c-1.304-1.72-0.877-2.22-2.676-2.22c-9.856,0-19.713,0-29.569,0c-29.105,0-58.21,0-87.315,0c-2.483,0-4.967,0-7.451,0
			C3.993-0.625,3.994-0.033,3.994,0c0,34.568,0,69.136,0,103.704c0,64.198,0,128.395,0,192.592c0,34.568,0,69.136,0,103.704
			C3.994,400.707,4.006,400.707,4.006,400z"/>
	</g>
</g>
</svg>
